<svg width="19" height="18" viewBox="0 0 19 18" fill="none" xmlns="http://www.w3.org/2000/svg">
<path d="M15.288 14.8511C15.6703 15.3322 15.8406 15.8626 15.6968 16.4724C15.6059 16.8664 15.3978 17.196 15.0874 17.446C14.3986 18.0028 13.5054 18.0028 12.8128 17.4498C12.4154 17.1316 12.1921 16.7035 12.1542 16.1959C12.1126 15.6921 12.2867 15.2451 12.6387 14.8246C11.2648 14.8246 9.93635 14.8246 8.5814 14.8246C9.25509 15.8398 9.22481 16.7755 8.24078 17.5369C7.60872 18.0256 6.8177 17.9574 6.20836 17.5407C5.76554 17.2376 5.51196 16.8096 5.44762 16.2717C5.38328 15.7376 5.56116 15.2716 5.9245 14.8057C5.72769 14.8057 5.59144 14.8095 5.45898 14.8057C5.03887 14.7981 4.83449 14.5026 4.97453 14.1049C5.16755 13.5594 5.36436 13.0139 5.55738 12.4684C5.5763 12.4116 5.59144 12.3548 5.61794 12.2677C5.51575 12.2677 5.44005 12.2677 5.36814 12.2677C5.00859 12.2639 4.77772 12.0745 4.71338 11.7184C4.45223 10.2903 4.19486 8.85841 3.93372 7.43031C3.64229 5.84689 3.34708 4.26727 3.05565 2.68385C3.05187 2.65734 3.0443 2.63461 3.04051 2.60809C2.95725 2.0967 2.95346 2.10428 2.48037 1.92624C1.79911 1.66865 1.12164 1.39591 0.444166 1.13074C0.190586 1.03225 0.0581198 0.835271 0.00513313 0.592834C-0.0440688 0.357973 0.270066 0.0170463 0.535 0.00189404C0.644758 -0.00568211 0.76587 0.00947019 0.868059 0.0473509C1.74991 0.38449 2.62419 0.736781 3.50225 1.07392C3.8126 1.19514 4.00563 1.38075 4.06618 1.73304C4.28948 3.02857 4.53549 4.3203 4.77393 5.61203C5.03887 7.05529 5.30002 8.49855 5.56495 9.93801C5.63307 10.3168 5.70498 10.6918 5.78068 11.0896C5.86394 11.0896 5.93585 11.0896 6.00777 11.0896C9.05071 11.0896 12.0974 11.0896 15.1404 11.0896C15.4507 11.0896 15.447 11.0896 15.5416 10.7979C15.8027 9.99105 16.0677 9.18419 16.3288 8.37354C16.7527 7.05529 17.169 5.73704 17.5929 4.42258C17.6346 4.29757 17.6043 4.26727 17.4832 4.26348C16.9533 4.24833 16.4272 4.2256 15.8973 4.20287C14.9284 4.1612 13.9633 4.11574 12.9944 4.07029C12.544 4.05135 12.0899 4.03241 11.6395 4.01347C10.4851 3.96422 9.327 3.91498 8.17265 3.86573C7.65414 3.843 7.13184 3.81649 6.61333 3.79376C6.29919 3.7786 6.03047 3.51344 6.03047 3.21418C6.03047 2.89598 6.29541 2.63082 6.62847 2.63839C7.43462 2.66112 8.23699 2.699 9.04314 2.7331C9.50867 2.75204 9.9742 2.77477 10.4359 2.79749C11.6357 2.85053 12.8393 2.89977 14.039 2.94902C15.3221 3.00205 16.6051 3.05129 17.8881 3.10812C18.1114 3.11948 18.3423 3.12706 18.558 3.1763C18.9252 3.25964 19.0765 3.59678 18.963 3.94528C18.6451 4.91124 18.3423 5.88477 18.032 6.85452C17.8314 7.48334 17.627 8.11216 17.4226 8.74098C17.1198 9.68043 16.8208 10.6199 16.518 11.5593C16.4878 11.6502 16.4613 11.7411 16.4272 11.8283C16.3023 12.1313 16.1206 12.2563 15.7876 12.2563C12.8355 12.2563 9.88336 12.2563 6.93125 12.2563C6.62847 12.2563 6.63225 12.2563 6.53385 12.5366C6.39003 12.9533 6.24242 13.3662 6.08346 13.8094C6.17051 13.817 6.23864 13.8246 6.31055 13.8246C9.42162 13.8246 12.5289 13.8246 15.64 13.8284C15.746 13.8284 15.8519 13.8397 15.9579 13.8587C16.2115 13.9079 16.3667 14.1087 16.3515 14.3587C16.3364 14.5973 16.1434 14.7868 15.8898 14.7943C15.6968 14.8019 15.5037 14.7943 15.3069 14.7943C15.3069 14.8171 15.2956 14.8322 15.288 14.8511ZM14.7846 16.0633C14.796 15.6163 14.4175 15.2262 13.9709 15.2186C13.5016 15.211 13.1118 15.586 13.1042 16.0558C13.0966 16.499 13.4789 16.8891 13.9255 16.8967C14.3948 16.9081 14.7733 16.5406 14.7846 16.0633ZM6.3976 16.0671C6.3976 16.5179 6.77607 16.8967 7.22646 16.8967C7.68441 16.9005 8.06668 16.5141 8.06289 16.0558C8.06289 15.6012 7.68063 15.2148 7.2416 15.2186C6.76472 15.2224 6.3976 15.5974 6.3976 16.0671Z" fill="#252525"/>
</svg>
