<svg width="21" height="19" viewBox="0 0 21 19" fill="none" xmlns="http://www.w3.org/2000/svg">
<path d="M16.2468 15.7825C16.653 16.2938 16.834 16.8574 16.6812 17.5055C16.5847 17.9242 16.3634 18.2744 16.0336 18.5401C15.3016 19.1319 14.3524 19.1319 13.6163 18.5441C13.194 18.206 12.9567 17.7511 12.9165 17.2117C12.8722 16.6762 13.0573 16.2012 13.4313 15.7544C11.9713 15.7544 10.5595 15.7544 9.11959 15.7544C9.83553 16.8332 9.80335 17.8276 8.7576 18.6367C8.08591 19.156 7.24528 19.0836 6.59772 18.6408C6.12713 18.3187 5.85765 17.8638 5.78927 17.2922C5.7209 16.7246 5.90994 16.2294 6.29606 15.7342C6.08691 15.7342 5.94211 15.7383 5.80134 15.7342C5.35488 15.7262 5.13769 15.4122 5.28651 14.9895C5.49163 14.4098 5.70079 13.8301 5.90591 13.2504C5.92602 13.19 5.94211 13.1296 5.97027 13.0371C5.86167 13.0371 5.78123 13.0371 5.70481 13.0371C5.32271 13.033 5.07736 12.8317 5.00898 12.4533C4.73145 10.9357 4.45795 9.41398 4.18042 7.89631C3.87072 6.21359 3.55699 4.53489 3.24729 2.85217C3.24327 2.82399 3.23522 2.79984 3.2312 2.77166C3.14271 2.2282 3.13869 2.23625 2.63593 2.04704C1.91194 1.7733 1.19198 1.48345 0.472022 1.20166C0.202539 1.09699 0.0617648 0.887655 0.00545506 0.630014C-0.0468326 0.380424 0.287004 0.0181154 0.568553 0.00201282C0.685194 -0.00603847 0.813902 0.0100641 0.9225 0.0503206C1.85966 0.408603 2.78877 0.782988 3.7219 1.14127C4.05171 1.27009 4.25684 1.46735 4.3212 1.84173C4.5585 3.2185 4.81994 4.59125 5.07333 5.964C5.35488 7.49777 5.63241 9.03154 5.91396 10.5613C5.98636 10.9638 6.06278 11.3624 6.14322 11.7851C6.23171 11.7851 6.30813 11.7851 6.38455 11.7851C9.61834 11.7851 12.8561 11.7851 16.0899 11.7851C16.4198 11.7851 16.4157 11.7851 16.5163 11.4751C16.7938 10.6176 17.0754 9.76018 17.3529 8.89869C17.8034 7.49777 18.2458 6.09684 18.6963 4.69994C18.7405 4.5671 18.7083 4.53489 18.5796 4.53087C18.0165 4.51476 17.4575 4.49061 16.8944 4.46646C15.8647 4.42217 14.8391 4.37387 13.8094 4.32556C13.3308 4.30543 12.8481 4.2853 12.3695 4.26517C11.1427 4.21284 9.91195 4.16051 8.6852 4.10817C8.13417 4.08402 7.57912 4.05584 7.02809 4.03169C6.69425 4.01558 6.40868 3.73379 6.40868 3.41576C6.40868 3.07761 6.69023 2.79581 7.04418 2.80386C7.90089 2.82802 8.75358 2.86827 9.61029 2.9045C10.105 2.92463 10.5997 2.94879 11.0904 2.97294C12.3654 3.0293 13.6445 3.08163 14.9195 3.13397C16.283 3.19033 17.6465 3.24266 19.01 3.30304C19.2473 3.31512 19.4927 3.32317 19.7219 3.37551C20.1121 3.46407 20.2729 3.82235 20.1523 4.19271C19.8144 5.21925 19.4927 6.25384 19.1628 7.28441C18.9497 7.95267 18.7325 8.62092 18.5153 9.28918C18.1935 10.2875 17.8758 11.2859 17.554 12.2843C17.5218 12.3809 17.4937 12.4775 17.4575 12.5701C17.3247 12.8921 17.1317 13.025 16.7777 13.025C13.6405 13.025 10.5032 13.025 7.36595 13.025C7.04418 13.025 7.0482 13.025 6.94362 13.3229C6.79078 13.7657 6.63392 14.2045 6.46499 14.6755C6.5575 14.6835 6.6299 14.6916 6.70632 14.6916C10.0125 14.6916 13.3147 14.6916 16.6209 14.6956C16.7335 14.6956 16.8461 14.7077 16.9587 14.7278C17.2282 14.7802 17.3931 14.9935 17.377 15.2592C17.3609 15.5128 17.1558 15.7141 16.8863 15.7222C16.6812 15.7302 16.4761 15.7222 16.2669 15.7222C16.2669 15.7463 16.2548 15.7624 16.2468 15.7825ZM15.7119 17.0708C15.7239 16.5957 15.3217 16.1811 14.8471 16.173C14.3484 16.165 13.9341 16.5635 13.926 17.0627C13.918 17.5337 14.3242 17.9483 14.7988 17.9564C15.2976 17.9685 15.6998 17.578 15.7119 17.0708ZM6.79883 17.0748C6.79883 17.5538 7.20104 17.9564 7.67967 17.9564C8.16635 17.9604 8.57258 17.5498 8.56856 17.0627C8.56856 16.5796 8.16233 16.169 7.69576 16.173C7.18897 16.1771 6.79883 16.5756 6.79883 17.0748Z" fill="white"/>
</svg>
