<svg width="15" height="15" viewBox="0 0 15 15" fill="none" xmlns="http://www.w3.org/2000/svg">
<path d="M3.44351 0C5.85536 0 8.2652 0 10.677 0C10.703 0.00599978 10.729 0.0139995 10.755 0.0159994C11.3884 0.0719973 11.9699 0.27799 12.4874 0.645976C13.4606 1.33795 13.9821 2.28991 14.05 3.47987C14.074 3.91185 14.056 4.34584 14.056 4.77982C14.056 6.49376 14.05 8.2057 14.058 9.91963C14.06 10.5636 14.0281 11.1976 13.7583 11.7976C13.2767 12.8695 12.4734 13.5675 11.3425 13.8795C11.1207 13.9415 10.8869 13.9635 10.6571 14.0035C8.25921 14.0035 5.86135 14.0035 3.4635 14.0035C3.29365 13.9775 3.1218 13.9575 2.95195 13.9235C1.47727 13.6195 0.306318 12.3875 0.110493 10.8976C0.0565417 10.4816 0.0665328 10.0536 0.0665328 9.63164C0.0625363 7.70971 0.0705292 5.78779 0.0625363 3.86586C0.0605381 3.24188 0.140467 2.6379 0.420217 2.07392C0.917772 1.06796 1.70307 0.407985 2.7881 0.119996C3.00191 0.0639976 3.22571 0.0399985 3.44351 0ZM1.26546 7.00374C1.26346 7.00374 1.26346 7.00374 1.26546 7.00374C1.26546 8.0397 1.26146 9.07766 1.26746 10.1136C1.26946 10.3596 1.26946 10.6096 1.31741 10.8496C1.53922 11.9936 2.54232 12.8095 3.70728 12.8115C4.82828 12.8135 5.95127 12.8135 7.07227 12.8135C8.17129 12.8135 9.27031 12.8075 10.3673 12.8115C10.9388 12.8135 11.4583 12.6575 11.9099 12.3055C12.4674 11.8716 12.8051 11.3016 12.8511 10.5916C12.8851 10.0616 12.8671 9.52565 12.8691 8.99367C12.8711 8.49368 12.8711 7.9937 12.8711 7.49372C12.8711 6.99374 12.8711 6.49376 12.8711 5.99378C12.8711 5.4938 12.8751 4.99381 12.8711 4.49383C12.8671 4.07785 12.8831 3.65786 12.8311 3.24788C12.6793 2.10192 11.6262 1.19996 10.4672 1.19996C8.21325 1.19796 5.95926 1.19996 3.70528 1.19996C3.30164 1.19996 2.91798 1.28595 2.5663 1.48394C1.74303 1.94593 1.28744 2.6499 1.26946 3.59587C1.24948 4.73182 1.26546 5.86778 1.26546 7.00374Z" fill="white"/>
<path d="M7.05692 10.4876C5.14264 10.4856 3.58403 8.92565 3.58203 7.01172C3.58003 5.08779 5.14863 3.51985 7.06692 3.52185C8.9852 3.52385 10.5358 5.07779 10.5478 7.00772C10.5598 8.91765 8.9852 10.4896 7.05692 10.4876ZM9.48276 7.01172C9.49674 5.70577 8.4277 4.60781 7.11088 4.58581C5.75609 4.56181 4.65308 5.65777 4.64708 6.99172C4.63909 8.36767 5.78007 9.45763 7.12087 9.42763C8.40572 9.39963 9.49075 8.32567 9.48276 7.01172Z" fill="white"/>
<path d="M10.9706 2.33186C11.4242 2.36586 11.7619 2.73984 11.7279 3.16983C11.69 3.62981 11.3243 3.9638 10.8947 3.9318C10.4191 3.8978 10.0974 3.53181 10.1314 3.06183C10.1593 2.62985 10.539 2.29986 10.9706 2.33186Z" fill="white"/>
</svg>
