<svg width="25" height="20" viewBox="0 0 25 20" fill="none" xmlns="http://www.w3.org/2000/svg">
<ellipse cx="7.20964" cy="12" rx="7.14714" ry="7" fill="#DA3940"/>
<path d="M12.5492 17.9302C15.6995 17.9302 18.8449 17.9256 21.9951 17.9347C22.5745 17.9347 23.0858 17.7989 23.4607 17.369C23.8892 16.8803 23.9866 16.3191 23.7236 15.7444C23.4558 15.1606 22.9543 14.8031 22.2581 14.794C20.4419 14.7759 18.6258 14.785 16.8096 14.785C16.722 14.785 16.6295 14.7895 16.5418 14.7804C16.1669 14.7488 15.9283 14.5315 15.9381 14.2283C15.9478 13.9342 16.1912 13.717 16.5564 13.717C17.574 13.7124 18.5917 13.7215 19.6142 13.7215C20.3494 13.7215 21.0895 13.7305 21.8247 13.717C23.0858 13.6898 24.0985 14.0971 24.6877 15.1787C25.5885 16.826 24.4345 18.7221 22.5843 18.9574C22.3603 18.9846 22.1315 19.0027 21.9075 19.0027C15.6167 19.0072 9.33078 19.0072 3.04 19.0027C1.81787 19.0027 0.887884 18.514 0.342553 17.4821C-0.519265 15.8439 0.70773 13.8708 2.66021 13.7577C3.3857 13.717 4.11605 13.726 4.84154 13.726C6.00523 13.7215 7.16893 13.7305 8.33263 13.7351C8.44462 13.7351 8.56148 13.7396 8.67346 13.7577C8.92665 13.7939 9.10681 13.984 9.12628 14.2193C9.14576 14.4637 8.98508 14.6945 8.73676 14.7533C8.6199 14.7804 8.49818 14.794 8.37645 14.794C6.52622 14.7986 4.68086 14.7895 2.83063 14.8031C1.93959 14.8121 1.25793 15.4366 1.20924 16.3236C1.17029 17.0206 1.62798 17.6948 2.54335 17.9075C2.72838 17.9483 2.92801 17.9392 3.12277 17.9392C6.26816 17.9302 9.40869 17.9302 12.5492 17.9302Z" fill="white"/>
<path d="M12.5404 16.6133C11.9854 15.9028 11.4498 15.2149 10.919 14.527C9.86733 13.1739 8.81075 11.8253 7.77365 10.4677C6.97513 9.42233 6.51744 8.24572 6.35189 6.97407C6.20582 5.81103 6.32268 4.67514 6.79984 3.58904C7.42308 2.16352 8.504 1.12267 10.0231 0.493632C11.1187 0.0410874 12.2629 -0.0992014 13.4558 0.06824C14.9993 0.285461 16.2798 0.946176 17.2829 2.05038C18.0619 2.90117 18.4855 3.90582 18.6754 5.00098C18.841 5.95132 18.7874 6.89261 18.5585 7.82485C18.2956 8.88381 17.8185 9.84773 17.1271 10.7257C16.1435 11.9747 15.1746 13.2328 14.2008 14.4908C13.6506 15.1878 13.1052 15.8847 12.5404 16.6133ZM12.5307 14.966C12.5842 14.8981 12.6135 14.8664 12.6427 14.8302C13.5191 13.64 14.4101 12.4589 15.272 11.2597C15.8514 10.4541 16.4649 9.66218 16.9372 8.80687C17.614 7.58048 17.7746 6.24547 17.4922 4.88331C17.2926 3.92392 16.8446 3.07314 16.0705 2.39884C14.6974 1.19055 13.0663 0.78326 11.2404 1.22223C9.5265 1.63404 8.35793 2.65227 7.76878 4.21807C7.43768 5.10053 7.38412 6.00562 7.51559 6.92881C7.65679 7.92441 8.02684 8.83855 8.62086 9.66218C9.47294 10.8524 10.3591 12.0154 11.2307 13.192C11.6591 13.7758 12.0876 14.3596 12.5307 14.966Z" fill="white"/>
<path d="M12.5275 2.66127C14.3923 2.65674 15.9456 4.09131 15.9456 5.82455C15.9456 7.54875 14.4118 8.98331 12.547 8.99236C10.6821 9.00141 9.12405 7.55327 9.12892 5.82455C9.13866 4.09131 10.6724 2.66579 12.5275 2.66127ZM12.5421 3.72927C11.2908 3.72475 10.278 4.66604 10.2829 5.8336C10.2877 6.99212 11.2859 7.91531 12.5324 7.91983C13.7837 7.92436 14.777 7.01022 14.7916 5.84265C14.8111 4.67961 13.8032 3.7338 12.5421 3.72927Z" fill="white"/>
</svg>
