<svg width="170" height="81" viewBox="0 0 170 81" fill="none" xmlns="http://www.w3.org/2000/svg">
<path fill-rule="evenodd" clip-rule="evenodd" d="M168.597 51.6237C164.871 48.5289 156.231 47.899 144.556 48.8576C132.88 49.8161 118.113 52.418 102.242 55.814C86.3159 59.2101 69.258 63.4551 52.9178 67.6728C36.5499 71.8905 20.8997 76.1082 7.84402 79.5043C-1.37498 81.887 -3.55552 81.4762 7.23678 77.8884C22.2246 72.9312 38.5648 67.8098 54.9051 62.9896C71.2454 58.1967 87.5856 53.7326 102.573 50.1174C117.561 46.5022 131.224 43.7635 142.182 42.3667C153.14 40.97 161.365 40.9152 165.561 42.7501C169.453 44.4482 171.578 48.6111 168.597 51.6237ZM33.3757 23.9349C33.3757 22.2369 30.8639 19.1694 29.0974 19.635C27.8277 19.9637 25.9508 20.7305 25.4264 21.5248C25.2608 21.7986 23.8255 24.2909 21.8105 27.9609C19.768 31.6308 17.1182 36.4784 14.4132 41.4355C11.7083 46.4201 8.92049 51.5142 6.68475 55.6771C4.449 59.8674 2.73769 63.0991 2.15805 64.3863C2.02004 64.715 1.99244 65.0436 1.99244 65.3449C1.99244 67.755 5.13905 70.7676 6.43633 70.5485C6.46393 70.5485 6.46393 70.5485 6.51914 70.5211C8.39606 70.0282 21.5345 63.7564 26.6408 61.9214C27.4413 61.6202 27.8001 61.1272 27.8001 60.6342C27.8001 59.5661 25.9508 58.1967 24.3223 58.498C23.7703 58.6075 22.9146 58.7993 21.8657 59.0731C18.5811 59.9495 13.392 61.6202 10.8802 62.6061C12.0947 60.3877 13.9716 57.1012 16.1522 53.4039C18.3327 49.734 20.8169 45.5984 23.163 41.7368C27.8553 33.9587 32.1336 27.0845 32.7132 26.1259C33.2101 25.359 33.3757 24.6743 33.3757 23.9349ZM168.928 15.4447C168.928 14.9244 168.818 14.76 168.431 14.8696C168.21 14.9244 168.017 15.0339 167.824 15.3352C166.554 17.4166 161.034 24.7839 158.853 25.4138C158.053 25.6329 157.501 25.1125 157.501 24.3457C157.501 23.1954 158.329 21.0318 159.93 17.9918C161.531 14.9518 163.932 11.0079 167.024 6.37945C167.52 5.63998 167.741 5.09223 167.741 4.68142C167.741 3.42159 164.098 1.6414 162.883 1.94266C162.414 2.0796 161.945 2.35347 161.476 2.98339C160.868 3.77763 157.805 7.94054 154.354 12.569C150.904 17.1975 147.095 22.3464 144.997 25.1947C146.267 23.0585 148.42 19.1147 150.352 15.5817C152.312 12.0487 153.996 8.8991 154.272 8.35135C154.465 7.99531 154.52 7.69405 154.52 7.47495C154.52 6.32467 150.849 5.06484 149.69 5.39349C149.082 5.55782 148.503 6.02341 147.868 7.1463C147.482 7.83099 144.721 13.2811 141.934 18.923C139.173 24.5374 136.358 30.371 135.889 31.7129C135.834 31.8499 135.778 32.0964 135.778 32.2881C135.778 34.0409 138.456 35.2459 140.415 34.7256C141.05 34.5613 143.728 30.6174 146.929 26.0711C150.131 21.5248 153.913 16.3759 156.701 13.7467C154.327 17.2797 151.705 23.0585 151.705 25.5234C151.705 28.7003 153.167 30.4805 155.872 29.741C161.282 28.2621 166.665 21.2235 168.79 16.102C168.901 15.8282 168.928 15.6364 168.928 15.4447ZM140.609 14.4588C140.609 9.93983 137.987 10.515 136.165 9.36469C135.475 8.95388 134.039 7.72144 132.025 8.2418C131.583 8.35135 131.114 8.54306 130.562 8.92649C129.761 9.47424 128.685 10.4054 127.498 11.6379C127.36 10.871 126.918 10.022 126.063 10.2685C125.593 10.4054 122.778 11.2544 119.272 12.2678C121.839 8.32396 123.937 5.39349 124.71 4.4897C125.4 3.72285 125.676 3.09294 125.676 2.59996C125.676 1.2032 121.481 -0.303121 120.183 0.0529177C119.769 0.162468 119.328 0.436344 119.107 0.92932C118.665 1.80572 117.616 3.6133 116.209 5.96863C114.801 8.35135 113.034 11.2818 111.213 14.4314C111.075 14.4588 110.937 14.4862 110.909 14.5136C108.811 15.0613 106.769 15.4995 104.699 16.0473C104.009 16.239 103.705 16.6772 103.705 17.1428C103.705 18.3478 105.278 19.9089 106.879 19.4981C106.962 19.4707 107.045 19.4981 107.183 19.4707C107.625 19.3612 108.066 19.1968 108.591 19.0599C106.796 22.2369 105.058 25.4138 103.595 28.3717C102.132 31.3295 100.945 34.0135 100.31 36.1497C100.255 36.3414 100.2 36.5058 100.172 36.6975C96.7218 41.1617 94.4585 42.7775 93.0784 43.161C92.4159 43.3253 91.6155 42.9419 91.6155 41.5177C91.6155 40.8878 93.8236 37.0535 96.2526 33.1371C98.6815 29.2207 101.331 25.1673 102.187 24.1266C102.629 23.6062 102.822 23.0585 102.822 22.5107C102.822 20.5936 100.42 18.923 98.4883 19.4433C97.8811 19.6076 97.3567 19.9637 96.9702 20.5662C96.7218 20.9496 96.225 21.7986 95.5625 23.0585C95.1209 21.9082 94.4309 21.1687 93.8512 20.8675C92.0847 19.9363 90.9806 19.7172 89.987 19.9637C89.4901 20.1006 88.9933 20.4019 88.5241 20.7305C86.5919 22.0451 82.7001 26.208 79.3051 31.083C76.3517 35.3007 73.7571 40.0662 73.1223 44.0374C70.5277 46.9952 67.3259 50.3091 65.3938 50.8295C64.6485 51.0212 64.1793 50.8569 64.1793 50.0626C64.1793 48.3098 66.3598 44.2291 69.0096 40.0114C71.6594 35.8211 74.8336 31.5212 76.7933 29.3302C77.3454 28.7003 77.5938 27.9882 77.5938 27.2488C77.5938 25.852 76.1309 22.812 74.5576 23.2502C74.4472 23.2776 74.3368 23.305 74.1987 23.4145C73.2879 23.7706 69.2028 25.7151 66.5807 26.4271C66.415 26.4819 66.277 26.5093 66.0838 26.5641C66.7739 25.3043 67.5467 23.5241 67.5467 22.4833C67.5467 21.7713 67.1051 21.7165 66.4426 21.8808C63.02 22.7298 60.6463 27.1666 58.9902 30.0697C58.5209 30.9187 58.3829 31.7403 58.3829 32.3976C58.3829 33.1919 58.5761 33.7944 58.5761 34.3422C58.5761 34.4517 58.4933 34.5886 58.4933 34.7256C58.3277 35.1912 56.0092 39.4089 53.4698 43.873C50.2128 49.5696 41.463 58.5528 35.9427 60.0043C33.5137 60.6616 32.5476 59.84 32.5476 58.1967C32.5476 57.5394 32.7132 56.6904 33.0169 55.7592C33.0997 55.7592 33.1273 55.7318 33.2101 55.7045C36.5775 54.8007 41.2146 52.0345 44.9684 48.5015C48.7223 44.9959 51.6757 40.7508 51.6757 36.9166C51.6757 34.9173 50.3508 33.8218 49.6055 32.8906C47.8666 30.727 47.3974 30.4257 45.6309 30.9187C42.8707 31.6856 38.2336 36.4784 34.2865 41.7094C30.3395 46.9678 27.0825 52.7466 27.0825 55.6223C27.0825 59.7852 29.0422 60.4151 30.3947 61.5654C32.382 63.2634 35.1974 63.7016 37.2675 63.1539C42.0427 61.8941 45.9345 58.7993 49.1915 55.0745C52.4485 51.3225 55.0431 46.9131 57.2236 42.9966C60.0114 37.9847 62.3852 33.6027 62.606 33.5753C63.2684 33.4931 65.8354 32.8358 67.6019 32.3429C65.8354 34.753 63.4893 37.8752 61.5847 41.1069C59.6802 44.3112 58.2449 47.6251 58.2449 50.3913C58.2449 54.0612 61.8331 55.7592 64.3449 55.1019C66.8015 54.4446 70.5277 50.8842 73.4535 47.2417C73.9779 47.7895 74.8612 48.0359 75.4684 49.2136C76.4345 51.076 77.5938 50.9938 78.6426 50.7199C80.2435 50.2817 83.1141 47.5977 85.7639 44.4756C86.4263 47.1322 88.1653 49.6244 91.5603 48.7206C93.796 48.1181 97.1358 45.0233 100.365 40.6961C100.696 41.3808 101.249 42.0107 102.077 42.5858C103.898 43.8456 105.554 44.1195 107.128 43.7087C110.164 42.8871 114.221 38.3681 116.844 35.0816C117.672 36.2593 118.914 36.8892 119.383 37.3C120.487 38.2038 122.419 39.3267 124.765 38.6968C127.774 37.9025 131.721 33.6301 134.923 28.7277C138.125 23.8253 140.636 18.2657 140.747 14.9244C140.609 14.76 140.609 14.6231 140.609 14.4588ZM125.704 13.555C124.655 13.6645 123.468 13.8836 122.253 14.2123C120.542 14.6505 118.665 15.3078 116.816 15.9651C114.056 20.2923 111.13 25.2221 108.867 29.5219C106.603 33.8492 105.058 37.5739 105.058 39.5184C105.058 40.5865 105.61 41.1891 106.769 40.8604C108.949 40.2853 113.09 35.7389 115.905 32.3703C115.96 28.2895 118.61 23.1133 121.729 18.6217C122.999 16.7867 124.379 15.0613 125.704 13.555ZM136.938 14.5136C136.938 16.5676 134.398 21.4974 131.5 26.0163C128.602 30.5353 125.29 34.6708 123.799 35.0542C122.171 35.4924 121.425 34.8899 121.425 33.7122C121.425 31.3295 124.02 26.5641 127.111 22.2368C130.203 17.937 133.791 14.0754 135.778 13.555C136.579 13.3633 136.938 13.7467 136.938 14.5136ZM93.9064 25.8246C93.5476 25.3316 93.106 25.1947 92.5539 25.3316C90.815 25.7972 87.3372 29.9054 84.2734 34.3695C81.2372 38.8063 78.6426 43.5718 78.6426 45.3793C78.6426 45.8449 78.8359 46.0914 79.1947 46.0093C80.8232 45.5711 84.025 41.2986 87.0888 36.7523C90.0974 32.2059 92.9956 27.3857 93.9064 25.8246ZM46.3209 38.7516C46.3209 38.5872 46.1829 38.4777 46.0173 38.5325C42.8983 39.3541 36.9363 47.9538 35.363 50.6651C39.5309 49.6518 46.3209 40.3674 46.3209 38.7516Z" fill="white"/>
</svg>
