<svg width="14" height="14" viewBox="0 0 14 14" fill="none" xmlns="http://www.w3.org/2000/svg">
<path d="M3.02565 14C2.47278 11.8724 1.6476 9.92401 0 8.44972C0.302565 8.09705 0.610632 7.76172 1.00672 7.52467C1.24327 7.38303 1.48807 7.33388 1.75488 7.33678C2.09045 7.33967 2.35726 7.48131 2.59656 7.70679C3.03115 8.11728 3.28696 8.64918 3.51251 9.20132C3.63353 9.49907 3.7353 9.8026 3.84533 10.1032C3.87008 10.1697 3.89484 10.2333 3.9361 10.3403C6.4804 6.18047 9.58857 2.65084 13.5632 0C13.7062 0.161883 13.8272 0.30064 13.951 0.436506C14.0198 0.511666 14.017 0.575263 13.9373 0.641751C13.7035 0.841214 13.4697 1.04646 13.2359 1.24592C12.4052 1.95994 11.6488 2.76069 10.9033 3.57299C9.61057 4.98369 8.49933 6.5447 7.48161 8.17799C6.63168 9.53954 5.85326 10.9473 5.11335 12.3783C5.08309 12.4361 5.04184 12.491 4.99233 12.5286C4.36794 12.9998 3.74081 13.4681 3.11367 13.9393C3.08892 13.9595 3.06141 13.9769 3.02565 14Z" fill="#6AA43B"/>
</svg>
