<svg width="24" height="19" viewBox="0 0 24 19" fill="none" xmlns="http://www.w3.org/2000/svg">
<ellipse cx="7.00142" cy="12" rx="7.00142" ry="7" fill="#DA3940"/>
<path d="M18.5235 18.9997C17.4914 18.9507 16.3938 18.6403 15.3507 18.1556C10.7909 16.0318 7.5144 12.6664 5.57579 8.02669C5.20445 7.13904 4.98055 6.20783 4.99694 5.23306C5.01332 4.38898 5.30274 3.65926 5.90344 3.06023C6.35123 2.61369 6.79356 2.15081 7.25227 1.70971C8.09325 0.892855 9.12535 0.876518 9.96632 1.68792C10.7363 2.42854 11.4954 3.18548 12.238 3.95877C13.0408 4.78651 13.0299 5.81575 12.2326 6.64893C11.8831 7.01379 11.5281 7.3841 11.1513 7.72173C10.9547 7.89599 10.9547 8.03213 11.0749 8.24452C11.7083 9.39355 12.5657 10.3629 13.5159 11.256C14.2149 11.9095 14.963 12.4921 15.8204 12.9332C15.9842 13.0149 16.0661 12.9931 16.1863 12.8733C16.5303 12.5139 16.8962 12.1708 17.2457 11.8114C18.1085 10.9347 19.1897 10.9292 20.0525 11.8005C20.7679 12.5248 21.4942 13.2382 22.2041 13.9625C23.0724 14.8447 23.0669 15.8902 22.2041 16.7779C21.7673 17.2299 21.3304 17.6764 20.8881 18.1175C20.3147 18.7002 19.5283 19.0052 18.5235 18.9997ZM6.09457 5.29296C6.10003 6.19694 6.384 7.29697 6.92462 8.42967C8.41544 11.5392 10.5998 14.0442 13.505 15.9175C14.9685 16.8596 16.4975 17.671 18.2614 17.8888C18.9495 17.9759 19.5884 17.8779 20.1017 17.366C20.5549 16.9086 21.0082 16.4511 21.456 15.9828C21.8874 15.5308 21.871 15.1551 21.4232 14.7085C20.7242 14.006 20.0198 13.309 19.3263 12.6065C18.8293 12.1055 18.4853 12.1001 17.9829 12.5956C17.5569 13.0149 17.1364 13.4451 16.7105 13.8699C16.361 14.213 16.0279 14.2511 15.5965 14.0387C14.264 13.3852 13.1336 12.4704 12.1179 11.4085C11.2387 10.4881 10.4305 9.50791 9.91172 8.3262C9.69874 7.83609 9.76427 7.54747 10.1465 7.18261C10.5998 6.74696 11.053 6.31675 11.4844 5.85931C11.8667 5.45633 11.8558 5.1187 11.4681 4.72116C10.7418 3.98055 10.0155 3.24539 9.27826 2.52111C8.80862 2.05823 8.43728 2.06912 7.96219 2.53745C7.56354 2.92409 7.18674 3.33252 6.78264 3.70827C6.29116 4.16571 6.0618 4.72116 6.09457 5.29296Z" fill="white"/>
<path d="M14.9766 0.538804C14.9766 0.19028 15.2824 -0.054775 15.6428 0.0105732C17.2974 0.310085 18.7992 0.958121 20.1262 1.9928C22.2122 3.6265 23.4955 5.74487 23.987 8.3479C24.0471 8.6692 23.8614 8.93059 23.5501 8.99049C23.2389 9.0504 22.9931 8.87069 22.9057 8.54939C22.7146 7.87957 22.5836 7.18797 22.3105 6.55083C21.1747 3.90423 19.1924 2.16162 16.4292 1.31209C16.1124 1.21407 15.7793 1.15961 15.4517 1.08882C15.1458 1.01802 14.9766 0.821979 14.9766 0.538804Z" fill="white"/>
<path d="M15.3747 3.43601C16.1502 3.5667 16.8819 3.81176 17.5482 4.21474C19.1536 5.18952 20.1584 6.58905 20.5298 8.43514C20.6062 8.81633 20.4533 9.09406 20.1148 9.16486C19.7926 9.23021 19.5359 9.04505 19.4649 8.6693C19.1973 7.2861 18.482 6.19152 17.3352 5.37467C16.7126 4.92812 16.0191 4.66129 15.2655 4.5197C14.9652 4.46524 14.7959 4.22563 14.8232 3.93156C14.8505 3.65928 15.1126 3.43056 15.3747 3.43601Z" fill="white"/>
</svg>
