<svg width="19" height="19" viewBox="0 0 19 19" fill="none" xmlns="http://www.w3.org/2000/svg">
<path d="M0 18.9913C0.815142 15.4537 2.87697 13.1033 6.11356 11.7122C2.39748 9.14592 2.51735 4.50505 4.86688 2.02272C7.38423 -0.627495 11.424 -0.675463 14.0132 1.89081C16.3268 4.19326 16.8423 8.91808 12.9104 11.7122C16.183 13.0553 18.1968 15.4417 19 18.9793C18.5085 18.9793 18.089 19.0273 17.6934 18.9553C17.5375 18.9313 17.3697 18.6555 17.3098 18.4756C16.3508 15.5256 14.3968 13.6189 11.388 12.8634C7.24038 11.8321 2.93691 14.3144 1.75016 18.4037C1.60631 18.8954 1.39054 19.0393 0.935016 18.9913C0.659306 18.9673 0.395584 18.9913 0 18.9913ZM14.253 6.3638C14.241 3.6896 12.0953 1.53105 9.48202 1.55503C6.88076 1.57902 4.747 3.72557 4.747 6.29184C4.75899 8.96604 6.89274 11.1246 9.51798 11.1006C12.1073 11.0886 14.253 8.93007 14.253 6.3638Z" fill="white"/>
</svg>
