<svg width="21" height="18" viewBox="0 0 21 18" fill="red" xmlns="http://www.w3.org/2000/svg">
<path d="M21 5.77244C20.977 8.2691 20.0922 9.93354 18.8052 11.4293C16.5874 13.9822 13.8984 15.9728 11.0715 17.8171C10.7153 18.0533 10.3591 18.0646 10.0029 17.8284C6.9117 15.8266 3.93546 13.6898 1.69466 10.7433C-0.0290292 8.48278 -0.603593 5.98612 0.752377 3.33201C2.4301 0.0368667 6.92319 -1.00903 9.9339 1.17274C10.3936 1.51012 10.6579 1.45389 11.106 1.16149C13.2204 -0.233043 15.4727 -0.39049 17.7135 0.790364C19.8853 1.93748 20.954 3.82684 21 5.77244ZM10.5085 16.074C12.6918 14.6345 14.7373 13.1275 16.5184 11.3168C17.7365 10.0797 18.8511 8.79768 19.1499 7.00953C19.4257 5.37882 18.9431 3.99554 17.7135 2.90465C16.4495 1.78003 14.9326 1.44264 13.3468 2.0162C12.5884 2.28611 11.9219 2.83718 11.2554 3.33201C10.7038 3.74812 10.3131 3.78186 9.79601 3.33201C9.65811 3.2083 9.52022 3.07335 9.38232 2.93839C7.06109 0.824102 3.24598 1.67882 2.11984 4.5691C1.31545 6.61591 2.01642 8.39281 3.32642 9.98977C5.3259 12.4415 7.86548 14.3196 10.5085 16.074Z" fill="white"/>
</svg>
